PathFileType	4	(X/Y/Z)	Subject_003_static.trc	
DataRate	CameraRate	NumFrames	NumMarkers	Units	OrigDataRate	OrigDataStartFrame	OrigNumFrames	
100.00	100.00	6	24	mm	100.00	1	140	
Frame#	Time	LASI			RASI			LPSI			RPSI			LTHI			LKNE			LMKNE			LTIB			LANK			LHEE			LTOE			RTHI			RKNE			RMKNE			RTIB			RANK			RHEE			RTOE			LFEO			LFEP			LTIO			RFEO			RFEP			RTIO			
		X1	Y1	Z1	X2	Y2	Z2	X3	Y3	Z3	X4	Y4	Z4	X5	Y5	Z5	X6	Y6	Z6	X7	Y7	Z7	X8	Y8	Z8	X9	Y9	Z9	X10	Y10	Z10	X11	Y11	Z11	X12	Y12	Z12	X13	Y13	Z13	X14	Y14	Z14	X15	Y15	Z15	X16	Y16	Z16	X17	Y17	Z17	X18	Y18	Z18	X19	Y19	Z19	X20	Y20	Z20	X21	Y21	Z21	X22	Y22	Z22	X23	Y23	Z23	X24	Y24	Z24	

1	0.000	-830.55823	596.18799	18.41156	-771.50751	585.51086	186.94910	-918.92657	636.12689	112.40353	-896.01135	629.74640	168.11682	-904.63220	394.50574	-23.74367	-887.37042	305.33328	32.32741	-867.89368	301.61063	128.92877	-880.80188	148.07953	-16.12483	-881.21399	48.90052	39.78049	-931.03717	36.90873	65.01000	-787.25476	34.21514	75.60796	-803.92102	392.85110	277.74841	-826.23096	297.41434	244.32513	-870.80188	278.88718	152.59337	-883.36938	177.79433	340.99768	-966.95465	118.88616	349.17734	-1006.93958	158.60043	337.25238	-984.51990	28.50403	332.63367	-872.44287	309.02301	75.68122	-874.06073	554.02325	55.38696	-879.88159	48.38014	71.74852	-843.84656	294.83118	201.36855	-829.24524	546.04797	180.27411	-989.04828	120.36306	325.38785 
2	0.010	-830.50677	596.19269	18.39266	-771.58136	585.52417	186.94313	-918.94629	636.11652	112.37321	-896.06616	629.76251	168.09010	-904.36151	394.53687	-23.73782	-887.32758	305.30157	32.35033	-867.94958	301.58484	128.94885	-880.75122	148.07124	-16.12041	-881.17737	48.86830	39.81421	-930.99420	36.88074	65.04554	-787.21222	34.21668	75.65129	-803.95850	392.84573	277.76981	-826.28534	297.40997	244.39314	-870.78247	278.84039	152.62695	-883.35468	177.79486	341.00610	-967.00043	118.85818	349.18616	-1006.94788	158.62627	337.28928	-984.51154	28.59472	332.65536	-872.53699	309.00995	75.74947	-874.03613	554.02551	55.32446	-879.87482	48.34521	71.78341	-843.91718	294.81104	201.44418	-829.30615	546.05542	180.24265	-989.09833	120.34790	325.40143 
3	0.020	-830.48828	596.16125	18.37510	-771.62939	585.51801	186.92226	-918.99902	636.10278	112.31692	-896.19586	629.76123	168.07700	-904.36292	394.53064	-23.74366	-887.41022	305.44644	32.23878	-867.96600	301.56854	128.93558	-880.72632	148.01695	-16.11808	-881.17535	48.85785	39.80480	-931.00946	36.87761	65.06061	-787.22815	34.19990	75.65967	-803.98254	392.85818	277.74283	-826.29529	297.42081	244.41136	-870.76331	278.78625	152.62068	-883.39764	177.76974	341.03745	-967.02802	118.85845	349.19672	-1006.99152	158.60898	337.30954	-984.52948	28.61585	332.65411	-872.63281	309.14005	75.64367	-874.02899	553.99200	55.28294	-879.90021	48.34809	71.77531	-843.93170	294.81290	201.46478	-829.34192	546.03961	180.21753	-989.12512	120.35006	325.41132 
4	0.030	-830.45087	596.14923	18.32753	-771.78833	585.45203	186.97952	-919.02655	636.12390	112.23491	-896.29291	629.79297	168.00415	-904.33887	394.50247	-23.77113	-887.29852	305.28842	32.28474	-868.00787	301.54840	128.93704	-880.68018	148.04553	-16.14769	-881.16882	48.84257	39.80304	-930.95673	36.87135	65.01622	-787.20648	34.19001	75.66455	-804.05310	392.86353	277.74045	-826.34558	297.44171	244.41522	-870.80524	278.76303	152.61412	-883.45404	177.76970	341.03833	-967.09369	118.82640	349.21768	-1007.04041	158.62016	337.29297	-984.45764	28.58389	332.69470	-872.50464	309.01056	75.68159	-874.05756	554.00519	55.19785	-879.89069	48.32705	71.77335	-843.99951	294.81946	201.47673	-829.52527	546.01385	180.18520	-989.19135	120.31691	325.43271 
5	0.040	-830.42267	596.08032	18.36177	-771.92523	585.42480	187.04468	-919.10712	636.12085	112.14957	-896.37866	629.77911	167.94029	-904.30170	394.44690	-23.77039	-887.28595	305.25974	32.29215	-868.01257	301.53680	128.92842	-880.68207	148.02016	-16.15464	-881.14990	48.80592	39.84644	-930.96582	36.85685	65.00819	-787.20288	34.17052	75.67683	-804.08685	392.88306	277.77100	-826.33820	297.44202	244.40329	-870.84308	278.78894	152.60114	-883.47729	177.78049	341.04681	-967.08942	118.84026	349.20590	-1007.06573	158.59087	337.28860	-984.46313	28.54037	332.69550	-872.51514	308.98676	75.69642	-874.07794	553.95990	55.19311	-879.86786	48.29396	71.81665	-843.99213	294.81812	201.46492	-829.66125	545.99792	180.22353	-989.18036	120.32095	325.41418 
6	0.050	-830.42926	596.06384	18.36634	-772.18158	585.41730	187.07350	-919.23193	636.15308	112.03584	-896.47321	629.81128	167.88744	-904.32898	394.48251	-23.80399	-887.32507	305.29401	32.24435	-868.07776	301.60089	128.85603	-880.67761	148.02205	-16.16511	-881.16663	48.86757	39.81511	-931.00189	36.91190	64.96838	-787.19769	34.21461	75.65839	-804.22595	393.01004	277.79611	-826.38916	297.48877	244.35561	-870.84747	278.81290	152.59938	-883.56122	177.87697	341.01190	-967.10034	118.89156	349.18613	-1007.09741	158.63321	337.27866	-984.50787	28.48772	332.71085	-872.56714	309.02890	75.65234	-874.16394	553.97406	55.11991	-879.90051	48.35775	71.78599	-844.01514	294.85364	201.40643	-829.91815	546.01563	180.21114	-989.17609	120.34144	325.37830 
